<svg width="16" height="16" viewBox="0 0 16 16" fill="none" xmlns="http://www.w3.org/2000/svg">
<rect x="0.25" y="2.25" width="15.5" height="11.5" rx="1.75" fill="white" stroke="#E3E4E8" stroke-width="0.5"/>
<mask id="mask0_913_4577" style="mask-type:luminance" maskUnits="userSpaceOnUse" x="0" y="2" width="16" height="12">
<rect y="2" width="16" height="12" rx="2" fill="white"/>
</mask>
<g mask="url(#mask0_913_4577)">
<path fill-rule="evenodd" clip-rule="evenodd" d="M16 2H0V2.8H16V2ZM16 3.60001H0V4.4H16V3.60001ZM0 5.20001H16V6.00001H0V5.20001ZM16 6.80001H0V7.60001H16V6.80001ZM0 8.4H16V9.2H0V8.4ZM16 10H0V10.8H16V10ZM0 11.6H16V12.4H0V11.6ZM16 13.2H0V14H16V13.2Z" fill="#D02F44"/>
<rect y="2" width="6.85714" height="5.59999" fill="#4D66B6"/>
<path fill-rule="evenodd" clip-rule="evenodd" d="M2.66611 3.65714C2.8765 3.65714 3.04706 3.48658 3.04706 3.27619C3.04706 3.06579 2.8765 2.89523 2.66611 2.89523C2.45571 2.89523 2.28516 3.06579 2.28516 3.27619C2.28516 3.48658 2.45571 3.65714 2.66611 3.65714Z" fill="white"/>
<path fill-rule="evenodd" clip-rule="evenodd" d="M4.19052 3.65714C4.40092 3.65714 4.57148 3.48658 4.57148 3.27619C4.57148 3.06579 4.40092 2.89523 4.19052 2.89523C3.98013 2.89523 3.80957 3.06579 3.80957 3.27619C3.80957 3.48658 3.98013 3.65714 4.19052 3.65714Z" fill="white"/>
<path fill-rule="evenodd" clip-rule="evenodd" d="M5.71396 3.65714C5.92435 3.65714 6.09491 3.48658 6.09491 3.27619C6.09491 3.06579 5.92435 2.89523 5.71396 2.89523C5.50357 2.89523 5.33301 3.06579 5.33301 3.27619C5.33301 3.48658 5.50357 3.65714 5.71396 3.65714Z" fill="white"/>
<path fill-rule="evenodd" clip-rule="evenodd" d="M1.90439 4.41904C2.11478 4.41904 2.28534 4.24848 2.28534 4.03809C2.28534 3.82769 2.11478 3.65714 1.90439 3.65714C1.694 3.65714 1.52344 3.82769 1.52344 4.03809C1.52344 4.24848 1.694 4.41904 1.90439 4.41904Z" fill="white"/>
<path fill-rule="evenodd" clip-rule="evenodd" d="M3.4288 4.41904C3.6392 4.41904 3.80976 4.24848 3.80976 4.03809C3.80976 3.82769 3.6392 3.65714 3.4288 3.65714C3.21841 3.65714 3.04785 3.82769 3.04785 4.03809C3.04785 4.24848 3.21841 4.41904 3.4288 4.41904Z" fill="white"/>
<path fill-rule="evenodd" clip-rule="evenodd" d="M4.95224 4.41904C5.16264 4.41904 5.33319 4.24848 5.33319 4.03809C5.33319 3.82769 5.16264 3.65714 4.95224 3.65714C4.74185 3.65714 4.57129 3.82769 4.57129 4.03809C4.57129 4.24848 4.74185 4.41904 4.95224 4.41904Z" fill="white"/>
<path fill-rule="evenodd" clip-rule="evenodd" d="M5.71396 5.18094C5.92435 5.18094 6.09491 5.01038 6.09491 4.79999C6.09491 4.5896 5.92435 4.41904 5.71396 4.41904C5.50357 4.41904 5.33301 4.5896 5.33301 4.79999C5.33301 5.01038 5.50357 5.18094 5.71396 5.18094Z" fill="white"/>
<path fill-rule="evenodd" clip-rule="evenodd" d="M4.19052 5.18094C4.40092 5.18094 4.57148 5.01038 4.57148 4.79999C4.57148 4.5896 4.40092 4.41904 4.19052 4.41904C3.98013 4.41904 3.80957 4.5896 3.80957 4.79999C3.80957 5.01038 3.98013 5.18094 4.19052 5.18094Z" fill="white"/>
<path fill-rule="evenodd" clip-rule="evenodd" d="M2.66611 5.18094C2.8765 5.18094 3.04706 5.01038 3.04706 4.79999C3.04706 4.5896 2.8765 4.41904 2.66611 4.41904C2.45571 4.41904 2.28516 4.5896 2.28516 4.79999C2.28516 5.01038 2.45571 5.18094 2.66611 5.18094Z" fill="white"/>
<path fill-rule="evenodd" clip-rule="evenodd" d="M1.14267 5.18094C1.35307 5.18094 1.52362 5.01038 1.52362 4.79999C1.52362 4.5896 1.35307 4.41904 1.14267 4.41904C0.932277 4.41904 0.761719 4.5896 0.761719 4.79999C0.761719 5.01038 0.932277 5.18094 1.14267 5.18094Z" fill="white"/>
<path fill-rule="evenodd" clip-rule="evenodd" d="M1.90439 5.94287C2.11478 5.94287 2.28534 5.77231 2.28534 5.56192C2.28534 5.35153 2.11478 5.18097 1.90439 5.18097C1.694 5.18097 1.52344 5.35153 1.52344 5.56192C1.52344 5.77231 1.694 5.94287 1.90439 5.94287Z" fill="white"/>
<path fill-rule="evenodd" clip-rule="evenodd" d="M3.4288 5.94287C3.6392 5.94287 3.80976 5.77231 3.80976 5.56192C3.80976 5.35153 3.6392 5.18097 3.4288 5.18097C3.21841 5.18097 3.04785 5.35153 3.04785 5.56192C3.04785 5.77231 3.21841 5.94287 3.4288 5.94287Z" fill="white"/>
<path fill-rule="evenodd" clip-rule="evenodd" d="M4.95224 5.94287C5.16264 5.94287 5.33319 5.77231 5.33319 5.56192C5.33319 5.35153 5.16264 5.18097 4.95224 5.18097C4.74185 5.18097 4.57129 5.35153 4.57129 5.56192C4.57129 5.77231 4.74185 5.94287 4.95224 5.94287Z" fill="white"/>
<path fill-rule="evenodd" clip-rule="evenodd" d="M5.71396 6.70478C5.92435 6.70478 6.09491 6.53422 6.09491 6.32382C6.09491 6.11343 5.92435 5.94287 5.71396 5.94287C5.50357 5.94287 5.33301 6.11343 5.33301 6.32382C5.33301 6.53422 5.50357 6.70478 5.71396 6.70478Z" fill="white"/>
<path fill-rule="evenodd" clip-rule="evenodd" d="M4.19052 6.70478C4.40092 6.70478 4.57148 6.53422 4.57148 6.32382C4.57148 6.11343 4.40092 5.94287 4.19052 5.94287C3.98013 5.94287 3.80957 6.11343 3.80957 6.32382C3.80957 6.53422 3.98013 6.70478 4.19052 6.70478Z" fill="white"/>
<path fill-rule="evenodd" clip-rule="evenodd" d="M2.66611 6.70478C2.8765 6.70478 3.04706 6.53422 3.04706 6.32382C3.04706 6.11343 2.8765 5.94287 2.66611 5.94287C2.45571 5.94287 2.28516 6.11343 2.28516 6.32382C2.28516 6.53422 2.45571 6.70478 2.66611 6.70478Z" fill="white"/>
<path fill-rule="evenodd" clip-rule="evenodd" d="M1.14267 6.70478C1.35307 6.70478 1.52362 6.53422 1.52362 6.32382C1.52362 6.11343 1.35307 5.94287 1.14267 5.94287C0.932277 5.94287 0.761719 6.11343 0.761719 6.32382C0.761719 6.53422 0.932277 6.70478 1.14267 6.70478Z" fill="white"/>
<path fill-rule="evenodd" clip-rule="evenodd" d="M1.14267 3.65714C1.35307 3.65714 1.52362 3.48658 1.52362 3.27619C1.52362 3.06579 1.35307 2.89523 1.14267 2.89523C0.932277 2.89523 0.761719 3.06579 0.761719 3.27619C0.761719 3.48658 0.932277 3.65714 1.14267 3.65714Z" fill="white"/>
</g>
</svg>
