<svg width="275" height="32" viewBox="0 0 275 32" fill="none" xmlns="http://www.w3.org/2000/svg">
<g clip-path="url(#clip0_913_4569)">
<path d="M8.53683 26.5292C7.62853 26.5292 6.80673 25.9647 6.50396 25.0963L0.145833 8.46675C-0.286693 7.33785 0.275591 6.07869 1.40016 5.6445C2.52472 5.21031 3.77905 5.77476 4.21158 6.90366L8.49358 18.1492L12.7756 6.90366C13.0784 6.03527 13.9002 5.47082 14.8085 5.47082C15.7168 5.47082 16.5386 6.03527 16.8413 6.90366L21.1233 18.1492L25.4053 6.90366C25.8379 5.77476 27.0922 5.21031 28.2168 5.6445C29.3413 6.07869 29.9036 7.33785 29.4711 8.46675L23.1995 25.0963C22.8967 25.9647 22.0749 26.5292 21.1666 26.5292C20.2583 26.5292 19.4365 25.9647 19.1337 25.0963L14.8517 13.8507L10.5697 25.0963C10.2237 25.9647 9.44514 26.5292 8.53683 26.5292Z" fill="white"/>
<path d="M74.5835 9.85619H61.9538C60.7427 9.85619 59.7479 8.85755 59.7479 7.64181C59.7479 6.42607 60.7427 5.42743 61.9538 5.42743H74.5835C75.7946 5.42743 76.7894 6.42607 76.7894 7.64181C76.7894 8.85755 75.7946 9.85619 74.5835 9.85619Z" fill="white"/>
<path d="M71.5558 18.1927H61.997C60.7859 18.1927 59.7911 17.194 59.7911 15.9783C59.7911 14.7625 60.7859 13.7639 61.997 13.7639H71.5558C72.7669 13.7639 73.7617 14.7625 73.7617 15.9783C73.7617 17.194 72.7669 18.1927 71.5558 18.1927Z" fill="white"/>
<path d="M74.6268 26.5292H61.997C60.7859 26.5292 59.7911 25.5305 59.7911 24.3148C59.7911 23.0991 60.7859 22.1004 61.997 22.1004H74.6268C75.8379 22.1004 76.8327 23.0991 76.8327 24.3148C76.8327 25.5305 75.8379 26.5292 74.6268 26.5292Z" fill="white"/>
<path d="M95.9935 9.85619H83.3638C82.1527 9.85619 81.1579 8.85755 81.1579 7.64181C81.1579 6.42607 82.1527 5.42743 83.3638 5.42743H95.9935C97.2046 5.42743 98.1994 6.42607 98.1994 7.64181C98.1994 8.85755 97.2046 9.85619 95.9935 9.85619Z" fill="white"/>
<path d="M92.9226 18.1927H83.3638C82.1527 18.1927 81.1579 17.194 81.1579 15.9783C81.1579 14.7625 82.1527 13.7639 83.3638 13.7639H92.9226C94.1337 13.7639 95.1285 14.7625 95.1285 15.9783C95.1285 17.194 94.1337 18.1927 92.9226 18.1927Z" fill="white"/>
<path d="M95.9935 26.5292H83.3638C82.1527 26.5292 81.1579 25.5305 81.1579 24.3148C81.1579 23.0991 82.1527 22.1004 83.3638 22.1004H95.9935C97.2046 22.1004 98.1994 23.0991 98.1994 24.3148C98.1994 25.5305 97.2046 26.5292 95.9935 26.5292Z" fill="white"/>
<path d="M109.142 26.5292C107.931 26.5292 106.936 25.5306 106.936 24.3148V7.68524C106.936 6.4695 107.931 5.47086 109.142 5.47086C110.353 5.47086 111.348 6.4695 111.348 7.68524V14.9134L111.421 14.8415C111.508 14.6899 111.613 14.5466 111.737 14.4152C111.889 14.2628 112.057 14.1371 112.236 14.0379L120.258 6.12218C121.123 5.25379 122.507 5.29721 123.372 6.1656C124.237 7.03398 124.194 8.4234 123.329 9.29178L116.526 16.0272L123.286 22.7083C124.151 23.5767 124.151 24.9661 123.329 25.8345C122.897 26.3121 122.334 26.5292 121.772 26.5292C121.21 26.5292 120.648 26.3121 120.215 25.8779L113.39 19.1323L111.348 21.1542V24.3148C111.348 25.5306 110.353 26.5292 109.142 26.5292Z" fill="white"/>
<path d="M96.2098 32H40.414C36.305 32 32.9745 28.6567 32.9745 24.5319V7.46811C32.9313 3.34328 36.305 0 40.414 0H96.2531C100.362 0 103.692 3.34328 103.692 7.46811V24.5319C103.692 28.6567 100.319 32 96.2098 32ZM40.414 2.17096C37.5161 2.17096 35.1372 4.55902 35.1372 7.46811V24.5319C35.1372 27.441 37.5161 29.829 40.414 29.829H96.2531C99.151 29.829 101.53 27.441 101.53 24.5319V7.46811C101.53 4.55902 99.151 2.17096 96.2531 2.17096H40.414Z" fill="white"/>
<path d="M53.2168 22.1438H40.587C40.4573 22.1438 40.3275 22.1438 40.1545 22.1872C39.1597 22.3609 38.3811 23.2727 38.3811 24.3582C38.3811 25.4437 39.1597 26.3121 40.1545 26.5292C40.2843 26.5726 40.414 26.5726 40.587 26.5726H53.2168C54.4278 26.5726 55.4227 25.5739 55.4227 24.3582C55.4227 23.099 54.4278 22.1438 53.2168 22.1438Z" fill="white"/>
<path d="M40.1977 9.81277C40.3275 9.85619 40.4573 9.85619 40.6303 9.85619H53.2168C54.4278 9.85619 55.4227 8.85755 55.4227 7.64181C55.4227 6.42607 54.4278 5.42742 53.2168 5.42742H40.587C40.4573 5.42742 40.3275 5.42742 40.1545 5.47084C39.1597 5.64452 38.3811 6.55633 38.3811 7.64181C38.4244 8.72729 39.1597 9.63909 40.1977 9.81277Z" fill="white"/>
<path d="M40.1977 18.1492C40.3275 18.1927 40.4573 18.1927 40.6303 18.1927H50.1891C51.4002 18.1927 52.395 17.194 52.395 15.9783C52.395 14.7625 51.4002 13.7639 50.1891 13.7639H40.587C40.4573 13.7639 40.3275 13.7639 40.1545 13.8073C39.1597 13.981 38.3811 14.8928 38.3811 15.9783C38.4244 17.0638 39.1597 17.9756 40.1977 18.1492Z" fill="white"/>
<rect x="148" width="2" height="32" rx="1" fill="white"/>
<path d="M175.12 10.48H183.944V22H182.768V11.608H176.296V22H175.12V10.48ZM192.735 14.848C192.905 15.264 192.991 15.8587 192.991 16.632V22H191.943V20.568C191.607 21.1173 191.159 21.5333 190.599 21.816C190.039 22.0987 189.391 22.24 188.655 22.24C188.025 22.24 187.487 22.1253 187.039 21.896C186.596 21.6667 186.263 21.3573 186.039 20.968C185.815 20.5787 185.703 20.1493 185.703 19.68C185.703 19.008 185.897 18.4667 186.287 18.056C186.676 17.6453 187.215 17.3493 187.903 17.168C188.324 17.0667 188.793 16.976 189.311 16.896C189.833 16.816 190.436 16.7307 191.119 16.64L191.839 16.544C191.828 15.7493 191.641 15.1653 191.279 14.792C190.921 14.4187 190.34 14.232 189.535 14.232C188.927 14.232 188.42 14.368 188.015 14.64C187.615 14.912 187.334 15.3307 187.174 15.896L186.031 15.56C186.233 14.7813 186.633 14.1813 187.231 13.76C187.833 13.3333 188.607 13.12 189.551 13.12C190.34 13.12 191.009 13.2693 191.559 13.568C192.113 13.8667 192.505 14.2933 192.735 14.848ZM188.791 21.224C189.324 21.224 189.799 21.128 190.215 20.936C190.631 20.7387 190.964 20.4693 191.215 20.128C191.471 19.7813 191.636 19.3893 191.711 18.952C191.785 18.6213 191.823 18.1627 191.823 17.576C191.615 17.5973 191.465 17.616 191.375 17.632C190.649 17.7173 190.06 17.7947 189.607 17.864C189.153 17.928 188.743 18.0107 188.375 18.112C187.377 18.4053 186.879 18.928 186.879 19.68C186.879 19.9467 186.943 20.1973 187.071 20.432C187.204 20.6667 187.415 20.8587 187.703 21.008C187.991 21.152 188.353 21.224 188.791 21.224ZM199.001 13.12C199.769 13.12 200.438 13.3173 201.009 13.712C201.585 14.1067 202.025 14.6507 202.329 15.344C202.633 16.032 202.785 16.808 202.785 17.672C202.785 18.5413 202.633 19.3227 202.329 20.016C202.025 20.7093 201.582 21.2533 201.001 21.648C200.425 22.0427 199.742 22.24 198.953 22.24C198.382 22.24 197.868 22.1307 197.409 21.912C196.956 21.688 196.569 21.3733 196.249 20.968V25.84H195.065V13.36H196.121V14.552C196.446 14.0933 196.852 13.7413 197.337 13.496C197.822 13.2453 198.377 13.12 199.001 13.12ZM198.833 21.144C199.414 21.144 199.908 20.9947 200.313 20.696C200.718 20.3973 201.022 19.9867 201.225 19.464C201.433 18.936 201.537 18.3387 201.537 17.672C201.537 17.0053 201.436 16.4133 201.233 15.896C201.036 15.3733 200.732 14.9627 200.321 14.664C199.91 14.3653 199.406 14.216 198.809 14.216C198.222 14.216 197.726 14.36 197.321 14.648C196.921 14.936 196.62 15.3413 196.417 15.864C196.22 16.3813 196.121 16.984 196.121 17.672C196.121 18.3547 196.22 18.9573 196.417 19.48C196.62 19.9973 196.924 20.4053 197.329 20.704C197.734 20.9973 198.236 21.144 198.833 21.144ZM206.886 14.448H203.822V13.36H211.126V14.448H208.062V22H206.886V14.448ZM212.643 13.36H213.819V17.112H218.691V13.36H219.867V22H218.691V18.24H213.819V22H212.643V13.36ZM224.832 10.392V11.672H223.552V10.392H224.832ZM227.88 10.392V11.672H226.6V10.392H227.88ZM222.88 18.008C222.928 19 223.198 19.7653 223.688 20.304C224.179 20.8427 224.854 21.112 225.712 21.112C226.326 21.112 226.864 20.9707 227.328 20.688C227.792 20.4 228.158 19.9867 228.424 19.448L229.52 19.872C229.179 20.624 228.678 21.208 228.016 21.624C227.355 22.0347 226.603 22.24 225.76 22.24C224.928 22.24 224.2 22.0533 223.576 21.68C222.952 21.3067 222.47 20.7813 222.128 20.104C221.792 19.4213 221.624 18.6267 221.624 17.72C221.624 16.7867 221.79 15.9733 222.12 15.28C222.456 14.5867 222.931 14.0533 223.544 13.68C224.163 13.3067 224.886 13.12 225.712 13.12C226.539 13.12 227.248 13.3067 227.84 13.68C228.438 14.048 228.894 14.5813 229.208 15.28C229.528 15.9733 229.688 16.8 229.688 17.76V18.008H222.88ZM225.744 14.2C224.918 14.2 224.259 14.4427 223.768 14.928C223.283 15.4133 222.995 16.112 222.904 17.024H228.456C228.371 16.0907 228.099 15.3867 227.64 14.912C227.182 14.4373 226.55 14.2 225.744 14.2ZM235.392 13.12C236.16 13.12 236.829 13.3173 237.4 13.712C237.976 14.1067 238.416 14.6507 238.72 15.344C239.024 16.032 239.176 16.808 239.176 17.672C239.176 18.5413 239.024 19.3227 238.72 20.016C238.416 20.7093 237.973 21.2533 237.392 21.648C236.816 22.0427 236.133 22.24 235.344 22.24C234.773 22.24 234.258 22.1307 233.8 21.912C233.346 21.688 232.96 21.3733 232.64 20.968V25.84H231.456V13.36H232.512V14.552C232.837 14.0933 233.242 13.7413 233.728 13.496C234.213 13.2453 234.768 13.12 235.392 13.12ZM235.224 21.144C235.805 21.144 236.298 20.9947 236.704 20.696C237.109 20.3973 237.413 19.9867 237.616 19.464C237.824 18.936 237.928 18.3387 237.928 17.672C237.928 17.0053 237.826 16.4133 237.624 15.896C237.426 15.3733 237.122 14.9627 236.712 14.664C236.301 14.3653 235.797 14.216 235.2 14.216C234.613 14.216 234.117 14.36 233.712 14.648C233.312 14.936 233.01 15.3413 232.808 15.864C232.61 16.3813 232.512 16.984 232.512 17.672C232.512 18.3547 232.61 18.9573 232.808 19.48C233.01 19.9973 233.314 20.4053 233.72 20.704C234.125 20.9973 234.626 21.144 235.224 21.144ZM244.516 22.24C243.663 22.24 242.933 22.048 242.325 21.664C241.722 21.28 241.261 20.744 240.941 20.056C240.626 19.368 240.463 18.576 240.453 17.68C240.463 16.768 240.629 15.9707 240.949 15.288C241.269 14.6 241.733 14.0667 242.341 13.688C242.949 13.3093 243.677 13.12 244.525 13.12C245.101 13.12 245.634 13.216 246.125 13.408C246.615 13.6 247.034 13.8773 247.381 14.24C247.727 14.5973 247.981 15.0213 248.141 15.512L246.989 15.88C246.786 15.368 246.463 14.968 246.021 14.68C245.583 14.392 245.082 14.248 244.516 14.248C243.594 14.248 242.895 14.5573 242.421 15.176C241.951 15.7947 241.711 16.6293 241.701 17.68C241.711 18.7413 241.957 19.5787 242.437 20.192C242.917 20.8053 243.61 21.112 244.516 21.112C245.103 21.112 245.602 20.9787 246.013 20.712C246.429 20.44 246.743 20.0453 246.957 19.528L248.141 19.88C247.815 20.648 247.343 21.2347 246.725 21.64C246.106 22.04 245.37 22.24 244.516 22.24ZM251.917 14.448H248.853V13.36H256.157V14.448H253.093V22H251.917V14.448ZM261.235 13.36C261.443 13.36 261.672 13.3733 261.923 13.4C262.179 13.4213 262.411 13.4587 262.619 13.512C263.109 13.6453 263.501 13.9093 263.795 14.304C264.088 14.6987 264.235 15.1707 264.235 15.72C264.235 16.3173 264.056 16.8027 263.699 17.176C263.533 17.3573 263.352 17.4907 263.155 17.576C263.331 17.608 263.515 17.6827 263.707 17.8C264.336 18.1787 264.651 18.7947 264.651 19.648C264.651 20.2293 264.512 20.7093 264.235 21.088C263.957 21.4667 263.576 21.7253 263.091 21.864C262.771 21.9547 262.307 22 261.699 22H257.675V13.36H261.235ZM261.275 17.176C261.653 17.176 261.96 17.1333 262.195 17.048C262.461 16.9573 262.661 16.7973 262.795 16.568C262.933 16.3387 263.003 16.0773 263.003 15.784C263.003 15.4747 262.928 15.208 262.779 14.984C262.635 14.7547 262.427 14.5947 262.155 14.504C261.899 14.4133 261.552 14.368 261.115 14.368H258.859V17.176H261.275ZM261.643 21C261.771 21 261.917 20.992 262.083 20.976C262.248 20.9547 262.395 20.928 262.523 20.896C262.821 20.8213 263.048 20.6667 263.203 20.432C263.357 20.1973 263.435 19.9253 263.435 19.616C263.435 19.2427 263.323 18.936 263.099 18.696C262.88 18.4507 262.587 18.2987 262.219 18.24C262.059 18.2027 261.811 18.184 261.475 18.184H258.859V21H261.643ZM269.853 22.24C269.01 22.24 268.28 22.048 267.661 21.664C267.048 21.2747 266.578 20.736 266.253 20.048C265.928 19.36 265.765 18.568 265.765 17.672C265.765 16.7707 265.93 15.976 266.261 15.288C266.592 14.6 267.064 14.0667 267.677 13.688C268.296 13.3093 269.021 13.12 269.853 13.12C270.701 13.12 271.432 13.312 272.045 13.696C272.664 14.08 273.136 14.616 273.461 15.304C273.786 15.992 273.949 16.7813 273.949 17.672C273.949 18.5787 273.784 19.376 273.453 20.064C273.128 20.752 272.656 21.288 272.037 21.672C271.424 22.0507 270.696 22.24 269.853 22.24ZM269.853 21.112C270.477 21.112 271.002 20.9707 271.429 20.688C271.856 20.4 272.173 20 272.381 19.488C272.594 18.9707 272.701 18.3653 272.701 17.672C272.701 16.6053 272.458 15.768 271.973 15.16C271.493 14.552 270.786 14.248 269.853 14.248C268.914 14.248 268.205 14.5573 267.725 15.176C267.25 15.7893 267.013 16.6213 267.013 17.672C267.013 18.3707 267.12 18.9787 267.333 19.496C267.552 20.0133 267.872 20.4133 268.293 20.696C268.72 20.9733 269.24 21.112 269.853 21.112Z" fill="white"/>
</g>
<defs>
<clipPath id="clip0_913_4569">
<rect width="275" height="32" fill="white"/>
</clipPath>
</defs>
</svg>
